<?xml version="1.0" standalone="no"?>
<!DOCTYPE svg PUBLIC "-//W3C//DTD SVG 20010904//EN"
 "http://www.w3.org/TR/2001/REC-SVG-20010904/DTD/svg10.dtd">
<svg version="1.0" xmlns="http://www.w3.org/2000/svg"
 width="280.000000pt" height="280.000000pt" viewBox="0 0 280.000000 280.000000"
 preserveAspectRatio="xMidYMid meet">
<metadata>
Created by potrace 1.11, written by Peter Selinger 2001-2013
</metadata>
<g transform="translate(0.000000,280.000000) scale(0.100000,-0.100000)"
fill="#000000" stroke="none">
<path d="M1343 2483 c-17 -10 -59 -43 -94 -73 -85 -75 -124 -109 -189 -165
-30 -26 -68 -60 -85 -74 -16 -15 -120 -105 -230 -201 -110 -96 -213 -187 -230
-201 -16 -15 -75 -66 -130 -113 -55 -48 -108 -99 -117 -114 -16 -25 -18 -67
-18 -498 0 -462 0 -472 21 -498 40 -51 35 -51 501 -52 241 0 440 -3 442 -5 3
-3 6 -48 7 -102 1 -90 3 -99 25 -116 36 -28 55 -20 138 54 6 6 45 39 86 75
103 90 139 121 169 149 14 13 33 28 42 35 20 15 49 57 49 72 0 18 -46 62 -248
237 -101 86 -191 157 -200 157 -31 0 -54 -25 -57 -61 -2 -19 -4 -67 -4 -107
l-1 -72 -327 2 -327 3 -1 285 -1 285 36 35 c36 36 82 77 303 269 71 61 135
117 141 124 7 7 39 35 72 62 70 60 219 190 254 221 l25 23 60 -51 c62 -52 123
-106 280 -243 50 -44 119 -105 154 -135 35 -30 72 -62 81 -70 9 -8 46 -40 80
-70 35 -30 83 -73 108 -95 24 -22 51 -44 58 -48 12 -7 14 -87 14 -462 l0 -455
113 0 c122 0 147 8 181 53 20 27 21 38 21 493 0 333 -3 474 -11 494 -7 15 -81
88 -165 162 -85 73 -246 214 -359 312 -113 98 -221 193 -240 210 -19 17 -69
60 -110 96 -41 36 -92 81 -113 100 -60 54 -117 90 -146 90 -15 0 -40 -8 -58
-17z"/>
</g>
</svg>
