<svg xmlns="http://www.w3.org/2000/svg" viewBox="0 0 42.51 51.79"><title>Asset 8</title><g id="538a2cbd-0b72-4508-9ae3-8c8ceb79fa08" data-name="Layer 2"><g id="38dbe49a-dc0d-44c2-b34d-18ed386082a2" data-name="Layer 1"><path d="M18.46,51.79l-14.79-19L9.27,28.4l12,15.44L32.52,29.41a13.16,13.16,0,0,0,2.88-7.53c0-.21,0-.42,0-.63a14.16,14.16,0,0,0-28.32,0c0,.21,0,.42,0,.62A13.17,13.17,0,0,0,10,29.41L4.4,33.77A20.22,20.22,0,0,1,0,22.19c0-.31,0-.62,0-.93a21.26,21.26,0,0,1,42.51,0q0,.47,0,.94a20.21,20.21,0,0,1-4.38,11.58l-14.06,18Z" fill="#ef8067"/></g></g></svg>