<svg width="72" height="72" viewBox="0 0 72 72" xmlns="http://www.w3.org/2000/svg" xmlns:xlink="http://www.w3.org/1999/xlink"><title>chat-icon</title><defs><path id="a" d="M4 76h72V4H4z"/></defs><g transform="translate(-4 -4)" fill="none" fill-rule="evenodd"><path d="M0 0h80v80H0z"/><path d="M19.644 33.925C11.67 36.098 6 41.645 6 48.148c0 4.594 2.833 8.71 7.307 11.5V74L25.57 63.308c.51.026 1.022.045 1.54.045 8.586 0 15.97-3.694 19.267-8.992" fill="#FFF"/><path d="M19.644 33.925C11.67 36.098 6 41.645 6 48.148c0 4.594 2.833 8.71 7.307 11.5V74L25.57 63.308c.51.026 1.022.045 1.54.045 8.586 0 15.97-3.694 19.267-8.992" stroke="#60C2AC" stroke-width="4" stroke-linecap="round" stroke-linejoin="round"/><path d="M74 30.183C74 16.828 61.76 6 46.658 6c-15.1 0-27.342 10.828-27.342 24.183 0 13.356 12.242 24.184 27.342 24.184a30.72 30.72 0 0 0 7.123-.834l11.466 11.464V47.912C70.628 43.496 74 37.19 74 30.182" fill="#FFF"/><path d="M74 30.183C74 16.828 61.76 6 46.658 6c-15.1 0-27.342 10.828-27.342 24.183 0 13.356 12.242 24.184 27.342 24.184a30.72 30.72 0 0 0 7.123-.834l11.466 11.464V47.912C70.628 43.496 74 37.19 74 30.182z" stroke="#60C2AC" stroke-width="4" stroke-linecap="round" stroke-linejoin="round"/><path fill="#FFF" d="M33.776 26.51H59.54L46.66 14.27z"/><path stroke="#60C2AC" stroke-width="4" stroke-linecap="round" stroke-linejoin="round" d="M33.776 26.51H59.54L46.66 14.27z"/><mask id="b" fill="#fff"><use xlink:href="#a"/></mask><path mask="url(#b)" d="M37.202 41.148h18.913V26.51H37.202z"/><path stroke="#60C2AC" stroke-width="4" stroke-linecap="round" stroke-linejoin="round" mask="url(#b)" d="M37.202 41.148h18.913V26.51H37.202zM46.66 41.148v-5.65M6.27 45.716h9.754M8.19 53.716h4.48"/></g></svg>