<svg width="72" height="72" viewBox="0 0 72 72" xmlns="http://www.w3.org/2000/svg" xmlns:xlink="http://www.w3.org/1999/xlink"><title>find-home-icon</title><defs><path id="a" d="M0 72h72V0H0z"/></defs><g fill="none" fill-rule="evenodd"><path d="M-4-4h80v80H-4z"/><path d="M28.237 2L2 28.934h8.258v25.542h35.864l.088-25.542h8.264z"/><path stroke="#60C2AC" stroke-width="4" stroke-linecap="round" stroke-linejoin="round" d="M28.237 2L2 28.934h8.258v25.542h35.864l.088-25.542h8.264zM44.437 18.63V8.848"/><g><path d="M53.92 59.263l9.63 9.63a3.78 3.78 0 0 0 5.342-5.342l-9.63-9.63" fill="#FFF"/><path d="M53.92 59.263l9.63 9.63a3.78 3.78 0 0 0 5.342-5.342l-9.63-9.63" stroke="#60C2AC" stroke-width="4" stroke-linecap="round" stroke-linejoin="round"/><mask id="b" fill="#fff"><use xlink:href="#a"/></mask><path fill="#FFF" mask="url(#b)" d="M22.735 31.564H33.74V20.56H22.734z"/><path stroke="#60C2AC" stroke-width="4" stroke-linecap="round" stroke-linejoin="round" mask="url(#b)" d="M22.735 31.564H33.74V20.56H22.734zM10.257 38.36h9.408M10.257 45.915h5.63"/><path d="M60.94 47.396c0 7.48-6.063 13.544-13.544 13.544-7.48 0-13.544-6.064-13.544-13.544S39.916 33.85 47.396 33.85 60.94 39.916 60.94 47.397" fill="#FFF" mask="url(#b)"/><path d="M60.94 47.396c0 7.48-6.063 13.544-13.544 13.544-7.48 0-13.544-6.064-13.544-13.544S39.916 33.85 47.396 33.85 60.94 39.916 60.94 47.397z" stroke="#60C2AC" stroke-width="4" stroke-linecap="round" stroke-linejoin="round" mask="url(#b)"/><path d="M47.396 54.94c-4.16 0-7.544-3.384-7.544-7.544s3.384-7.545 7.544-7.545 7.544 3.385 7.544 7.546c0 4.16-3.384 7.544-7.544 7.544" fill="#60C2AC" mask="url(#b)"/></g></g></svg>