<svg id="Layer_1" data-name="Layer 1" xmlns="http://www.w3.org/2000/svg" viewBox="0 0 257.03 256"><defs><style>.cls-1,.cls-2{fill:none;stroke-linecap:round;stroke-linejoin:round;stroke-width:14px;}.cls-1{stroke:#0b3443;}.cls-2{stroke:#00a98f;}</style></defs><title>Icons</title><path id="Stroke-1706" class="cls-1" d="M123.18,63.78h76.4"/><path id="Stroke-1708" class="cls-1" d="M123.18,123.2h76.4"/><path id="Stroke-1710" class="cls-1" d="M123.18,186.87H144.4"/><path id="Stroke-1712" class="cls-1" d="M93.17,42.56l-29.1,34L44.66,62"/><path id="Stroke-1714" class="cls-1" d="M93.17,102l-29.1,34-19.4-14.55"/><path id="Stroke-1716" class="cls-1" d="M93.17,165.65,64.06,199.6,44.66,185"/><path class="cls-1" d="M161.65,233.55H51a38.12,38.12,0,0,1-38.12-38.12V51A38.12,38.12,0,0,1,51,12.85H195.41A38.12,38.12,0,0,1,233.53,51V161.68"/><path id="Stroke-1704" class="cls-2" d="M246.26,195.36a50.93,50.93,0,1,1-50.93-50.93,50.93,50.93,0,0,1,50.93,50.93Z"/><path id="Stroke-106" class="cls-2" d="M217.8,177.44l-26.37,37.9-20.31-16.68"/></svg>