<svg id="Layer_1" data-name="Layer 1" xmlns="http://www.w3.org/2000/svg" viewBox="0 0 330.38 256"><defs><style>.cls-1,.cls-2{fill:none;stroke-linecap:round;stroke-linejoin:round;}.cls-1{stroke:#0b3443;stroke-width:16px;}.cls-2{stroke:#00a98f;stroke-width:15px;}</style></defs><title>Icons</title><path id="Stroke-600" class="cls-1" d="M10.46,208.14H127.37L138,218.77h53.14l10.63-10.63H318.69v19A12.87,12.87,0,0,1,305.83,240H23.32a12.87,12.87,0,0,1-12.87-12.87v-19Z"/><path id="Stroke-601" class="cls-1" d="M292.06,11.51h-255c-5.9,0-10.69,5.25-10.69,11.71V208.14h101L138,218.77h53.14l10.63-10.63h101V23.22c0-6.47-4.79-11.71-10.69-11.71Z"/><polygon id="Stroke-602" class="cls-2" points="225.41 64.84 174.61 115.74 188.49 129.62 225.41 92.61 225.51 92.71 225.6 92.61 262.52 129.62 276.4 115.74 225.41 64.84"/><polygon id="Stroke-603" class="cls-2" points="225.46 92.61 197.75 120.37 197.75 157.38 253.27 157.38 253.27 120.37 225.46 92.61"/><path id="Stroke-904" class="cls-2" d="M131.35,102.84a38,38,0,1,1-38-38,38,38,0,0,1,38,38Z"/><path id="Stroke-906" class="cls-2" d="M118.92,130.95l25.73,26.9"/></svg>