<svg width="41" height="104" viewBox="0 0 41 104" xmlns="http://www.w3.org/2000/svg" xmlns:xlink="http://www.w3.org/1999/xlink"><title>notification-icon</title><defs><path id="a" d="M0 65.19h35.905V0H0z"/><path id="c" d="M0 56.063h37.13V0H0z"/></defs><g fill="none" fill-rule="evenodd"><path d="M-31-1H74v105H-31z"/><g transform="translate(1 37.81)"><path d="M34.47 4.02v15.814c0 2.184-1.754 3.954-3.918 3.954s-3.92-1.77-3.92-3.954V4.02c0-2.183 1.756-3.953 3.92-3.953 2.164 0 3.92 1.77 3.92 3.953z" stroke="#60C2AC" stroke-width="3.64" stroke-linecap="round" stroke-linejoin="round"/><path d="M35.402 63.38H4.092c-1.268 0-2.297-1.622-2.297-3.623V5.433c0-2 1.03-3.622 2.298-3.622h31.31c1.268 0 2.297 1.623 2.297 3.623v54.324c0 2-1.03 3.622-2.298 3.622z" fill="#FFF"/><path d="M35.402 63.38H4.092c-1.268 0-2.297-1.623-2.297-3.623V5.432c0-2 1.03-3.62 2.298-3.62h31.31c1.268 0 2.297 1.62 2.297 3.62v54.325c0 2-1.03 3.622-2.298 3.622z" stroke="#60C2AC" stroke-width="3.64" stroke-linecap="round" stroke-linejoin="round"/><path d="M19.747 53.42c-1.487 0-2.692 1.216-2.692 2.716 0 1.5 1.205 2.716 2.692 2.716 1.488 0 2.693-1.216 2.693-2.716 0-1.5-1.205-2.717-2.693-2.717" fill="#FFF"/><path d="M19.747 53.42c-1.487 0-2.692 1.216-2.692 2.716 0 1.5 1.205 2.716 2.692 2.716 1.488 0 2.693-1.216 2.693-2.716 0-1.5-1.205-2.717-2.693-2.717z" stroke="#60C2AC" stroke-width="2.548" stroke-linecap="round" stroke-linejoin="round"/><mask id="b" fill="#fff"><use xlink:href="#a"/></mask><path fill="#60C2AC" mask="url(#b)" d="M6.283 50.703h26.93V7.243H6.282z"/></g><g transform="translate(2.3)"><path d="M35.525 18.02c0 9.094-16.96 36.486-16.96 36.486S1.604 27.114 1.604 18.02c0-9.09 7.593-16.463 16.96-16.463 9.366 0 16.96 7.372 16.96 16.464z" fill="#FFF"/><path d="M35.525 18.02c0 9.094-16.96 36.486-16.96 36.486S1.604 27.114 1.604 18.02c0-9.09 7.593-16.463 16.96-16.463 9.366 0 16.96 7.372 16.96 16.464z" stroke="#60C2AC" stroke-width="3.12" stroke-linecap="round" stroke-linejoin="round"/><mask id="d" fill="#fff"><use xlink:href="#c"/></mask><path fill="#fff" mask="url(#d)" d="M11.573 26.085h13.983V15.983H11.573z"/><path stroke="#60C2AC" stroke-width="3.12" stroke-linecap="round" stroke-linejoin="round" mask="url(#d)" d="M11.573 26.085h13.983V15.983H11.573z"/><path fill="#FFF" mask="url(#d)" d="M28.05 15.983L18.563 7.92 9.08 15.983z"/><path stroke="#60C2AC" stroke-width="3.12" stroke-linecap="round" stroke-linejoin="round" mask="url(#d)" d="M28.05 15.983L18.563 7.92 9.08 15.983zM18.564 26.085V22.45M7.058 33.74h8.366M10.537 39.97h2.75"/></g></g></svg>