<svg id="Layer_1" data-name="Layer 1" xmlns="http://www.w3.org/2000/svg" viewBox="0 0 360.3 256"><defs><style>.cls-1{fill:#00a98f;}.cls-2,.cls-3{fill:none;stroke-linecap:round;stroke-linejoin:round;stroke-width:14px;}.cls-2{stroke:#0b3443;}.cls-3{stroke:#00a98f;}</style></defs><title>Icons</title><g id="Page-1"><g id="Icons"><g id="_156---Money-_Outline_" data-name="156---Money-(Outline)"><path id="Stroke-138" class="cls-1" d="M85.4,63.49A13.07,13.07,0,1,1,98.48,50.42,13.08,13.08,0,0,1,85.4,63.49Z"/><path id="Stroke-140" class="cls-1" d="M320.68,63.49a13.07,13.07,0,1,1,13.07-13.07,13.08,13.08,0,0,1-13.07,13.07Z"/><path id="Stroke-142" class="cls-1" d="M85.4,173.29a13.07,13.07,0,1,1,13.07-13.07A13.08,13.08,0,0,1,85.4,173.29Z"/><path id="Stroke-144" class="cls-1" d="M320.68,173.29a13.07,13.07,0,1,1,13.07-13.07,13.08,13.08,0,0,1-13.07,13.07Z"/><path id="Stroke-128" class="cls-2" d="M56.65,21.66H349.44V189H56.65Z"/><path id="Stroke-132" class="cls-2" d="M271,105.32a68,68,0,1,1-68-68,68,68,0,0,1,68,68Z"/><path id="Stroke-134" class="cls-2" d="M166.94,162.83a67.84,67.84,0,0,1,0-115H114c.08.86.13,1.73.13,2.61A28.76,28.76,0,0,1,85.4,79.18c-.88,0-1.75-.05-2.61-.13v52.55c.86-.08,1.73-.13,2.61-.13a28.76,28.76,0,0,1,28.76,28.76c0,.88-.05,1.75-.13,2.61Z"/><path id="Stroke-136" class="cls-2" d="M320.68,79.18a28.76,28.76,0,0,1-28.76-28.76c0-.88.05-1.75.13-2.61H239.15a67.84,67.84,0,0,1,0,115h52.91c-.08-.86-.13-1.73-.13-2.61a28.76,28.76,0,0,1,28.76-28.76c.88,0,1.75.05,2.61.13V79c-.86.08-1.73.13-2.61.13Z"/></g></g></g><g id="_156---Money-_Outline_2" data-name="156---Money-(Outline)"><path id="Stroke-128-2" data-name="Stroke-128" class="cls-2" d="M326.31,189V212.1H33.52V44.79H56.65"/></g><g id="Page-1-2" data-name="Page-1"><g id="Icons-2" data-name="Icons"><g id="_156---Money-_Outline_3" data-name="156---Money-(Outline)"><path id="Stroke-128-3" data-name="Stroke-128" class="cls-2" d="M303.65,212.1v21.77H10.86V66.56H33.52"/></g></g></g><path id="Stroke-172" class="cls-3" d="M182.92,120.42a20.29,20.29,0,0,0,35.79,13.1A13,13,0,0,0,216.48,115L189.95,94.32a13,13,0,0,1-2.23-18.56,20.29,20.29,0,0,1,35.79,13.1"/><path id="Stroke-174" class="cls-3" d="M203.21,58.42v91.3"/></svg>