<svg width="67" height="79" viewBox="0 0 67 79" xmlns="http://www.w3.org/2000/svg" xmlns:xlink="http://www.w3.org/1999/xlink"><title>schedule-icon</title><defs><path id="a" d="M0 0h10v10H0z"/><mask id="l" x="0" y="0" width="10" height="10" fill="#fff"><use xlink:href="#a"/></mask><path id="b" d="M0 14h10v10H0z"/><mask id="m" x="0" y="0" width="10" height="10" fill="#fff"><use xlink:href="#b"/></mask><path id="c" d="M0 28h10v10H0z"/><mask id="n" x="0" y="0" width="10" height="10" fill="#fff"><use xlink:href="#c"/></mask><path id="d" d="M14 0h10v10H14z"/><mask id="o" x="0" y="0" width="10" height="10" fill="#fff"><use xlink:href="#d"/></mask><path id="e" d="M14 14h10v10H14z"/><mask id="p" x="0" y="0" width="10" height="10" fill="#fff"><use xlink:href="#e"/></mask><path id="f" d="M14 28h10v10H14z"/><mask id="q" x="0" y="0" width="10" height="10" fill="#fff"><use xlink:href="#f"/></mask><path id="g" d="M28 0h10v10H28z"/><mask id="r" x="0" y="0" width="10" height="10" fill="#fff"><use xlink:href="#g"/></mask><path id="h" d="M28 28h10v10H28z"/><mask id="s" x="0" y="0" width="10" height="10" fill="#fff"><use xlink:href="#h"/></mask><path id="i" d="M42 0h10v10H42z"/><mask id="t" x="0" y="0" width="10" height="10" fill="#fff"><use xlink:href="#i"/></mask><path id="j" d="M42 14h10v10H42z"/><mask id="u" x="0" y="0" width="10" height="10" fill="#fff"><use xlink:href="#j"/></mask><path id="k" d="M42 28h10v10H42z"/><mask id="v" x="0" y="0" width="10" height="10" fill="#fff"><use xlink:href="#k"/></mask><path id="w" d="M7 79.02h66.495V1H7z"/></defs><g transform="translate(-7 -1)" fill="none" fill-rule="evenodd"><path d="M0 0h80v80H0z"/><path d="M67.495 77.02H13a4 4 0 0 1-4-4v-60a4 4 0 0 1 4-4h54.495a4 4 0 0 1 4 4v60a4 4 0 0 1-4 4z" fill="#FFF"/><path d="M67.495 77.02H13a4 4 0 0 1-4-4v-60a4 4 0 0 1 4-4H67.495a4 4 0 0 1 4 4v60a4 4 0 0 1-4 4z" stroke="#60C2AC" stroke-width="4" stroke-linecap="round" stroke-linejoin="round"/><g transform="translate(14 34)"><use stroke="#60C2AC" mask="url(#l)" stroke-width="6" xlink:href="#a"/><use stroke="#60C2AC" mask="url(#m)" stroke-width="6" xlink:href="#b"/><use stroke="#60C2AC" mask="url(#n)" stroke-width="6" xlink:href="#c"/><use stroke="#60C2AC" mask="url(#o)" stroke-width="6" xlink:href="#d"/><use stroke="#60C2AC" mask="url(#p)" stroke-width="6" xlink:href="#e"/><use stroke="#60C2AC" mask="url(#q)" stroke-width="6" xlink:href="#f"/><use stroke="#60C2AC" mask="url(#r)" stroke-width="6" xlink:href="#g"/><path fill="#0a3444" d="M28 14h10v10H28z"/><use stroke="#60C2AC" mask="url(#s)" stroke-width="6" xlink:href="#h"/><use stroke="#60C2AC" mask="url(#t)" stroke-width="6" xlink:href="#i"/><use stroke="#60C2AC" mask="url(#u)" stroke-width="6" xlink:href="#j"/><use stroke="#60C2AC" mask="url(#v)" stroke-width="6" xlink:href="#k"/></g><mask id="x" fill="#fff"><use xlink:href="#w"/></mask><path fill="#0a3444" mask="url(#x)" d="M11.38 29.808h57.734v-12H11.38z"/><path d="M23.57 3v10.583M56.82 3v10.583" stroke="#60C2AC" stroke-width="4" stroke-linecap="round" stroke-linejoin="round" mask="url(#x)"/></g></svg>