<svg id="5f5a36ac-5c40-4962-815c-e0da0ea7df70" data-name="Layer 1" xmlns="http://www.w3.org/2000/svg" viewBox="0 0 287.12 45.96"><title>ss-logo</title><path d="M83.69,54.95a4.12,4.12,0,0,0,.83.64,6.24,6.24,0,0,0,.86.43,5,5,0,0,0,.72.23,2.33,2.33,0,0,0,.42.07l.69,0a3.68,3.68,0,0,0,.8-.13,1.66,1.66,0,0,0,.66-.35.85.85,0,0,0,.28-.68,1.12,1.12,0,0,0-.16-.63,1.26,1.26,0,0,0-.45-.4,3.71,3.71,0,0,0-.73-.29l-1-.3a11.66,11.66,0,0,1-2.81-1.09A6.3,6.3,0,0,1,82.09,51a4.63,4.63,0,0,1-.9-1.69,7,7,0,0,1-.25-1.91,4.84,4.84,0,0,1,.47-2.14,4.73,4.73,0,0,1,1.33-1.65,6.29,6.29,0,0,1,2.07-1.06,9.63,9.63,0,0,1,4.35-.23,6.66,6.66,0,0,1,1.49.47,7.34,7.34,0,0,1,1.38.82,11,11,0,0,1,1.34,1.2.89.89,0,0,1,.25.53.73.73,0,0,1-.32.53l-1.06.89q-.5.44-1,1a.79.79,0,0,1-.34.18.69.69,0,0,1-.33,0,1,1,0,0,1-.3-.14,1.22,1.22,0,0,1-.25-.24,2.47,2.47,0,0,0-1.13-.74,4.16,4.16,0,0,0-1.19-.19,2.18,2.18,0,0,0-1.11.24.74.74,0,0,0-.38.74.79.79,0,0,0,.28.57,2,2,0,0,0,.61.33,5.34,5.34,0,0,0,.77.21q.4.08.74.18a22.07,22.07,0,0,1,2.34.89,7.13,7.13,0,0,1,1.84,1.18,4.9,4.9,0,0,1,1.21,1.68A5.88,5.88,0,0,1,94.38,55a5.47,5.47,0,0,1-.56,2.51,5.37,5.37,0,0,1-1.54,1.86A7,7,0,0,1,90,60.51a10.12,10.12,0,0,1-2.88.4,10.54,10.54,0,0,1-1.79-.16,8.39,8.39,0,0,1-1.76-.5,8,8,0,0,1-1.62-.89A6.33,6.33,0,0,1,80.56,58a1.47,1.47,0,0,1-.23-.42,1.17,1.17,0,0,1-.07-.43,1,1,0,0,1,.08-.39.77.77,0,0,1,.25-.3l1.83-1.83a.65.65,0,0,1,.6-.2A2,2,0,0,1,83.69,54.95Z" transform="translate(-23.5 -20.59)" fill="#0b3444"/><path d="M97.11,36.49a1.15,1.15,0,0,1,.25-.84,1.1,1.1,0,0,1,.79-.25h3.29a1.23,1.23,0,0,1,.8.25,1,1,0,0,1,.3.84v2.76a1,1,0,0,1-.08.37,1.57,1.57,0,0,1-.22.38,1.19,1.19,0,0,1-.35.3.89.89,0,0,1-.46.12H98.16q-1,0-1-1.18Zm0,7.17a1.23,1.23,0,0,1,.25-.78,1,1,0,0,1,.79-.33h3.24a1,1,0,0,1,.37.08,1.26,1.26,0,0,1,.37.23,1.48,1.48,0,0,1,.29.35.86.86,0,0,1,.12.45v15.8a1.06,1.06,0,0,1-.3.81,1.2,1.2,0,0,1-.85.28H98.16q-1,0-1-1.09Z" transform="translate(-23.5 -20.59)" fill="#0b3444"/><path d="M106,42.8a.88.88,0,0,1,.39-.2,1.92,1.92,0,0,1,.39,0H109a1,1,0,0,1,.44.09,1,1,0,0,1,.31.25,1.31,1.31,0,0,1,.21.35q.08.2.15.41l.44,1.81q.21-.44.52-1a4.38,4.38,0,0,1,.81-1,4.22,4.22,0,0,1,1.26-.82,4.72,4.72,0,0,1,1.89-.33,6.33,6.33,0,0,1,3.17.77,6.58,6.58,0,0,1,2.24,2.07,6.07,6.07,0,0,1,.74-.94,6,6,0,0,1,1.12-.93,6.34,6.34,0,0,1,1.49-.7,6,6,0,0,1,1.86-.28,6.31,6.31,0,0,1,5,2.32A7.5,7.5,0,0,1,132,47.11a10,10,0,0,1,.46,3.06v9.28a1.23,1.23,0,0,1-.23.81.92.92,0,0,1-.74.28h-3.27a1.27,1.27,0,0,1-.84-.21,1.07,1.07,0,0,1-.23-.8V50.17a3.28,3.28,0,0,0-.19-1.13,2.87,2.87,0,0,0-.53-.91,2.38,2.38,0,0,0-.83-.61,2.62,2.62,0,0,0-1.08-.22,2.5,2.5,0,0,0-1,.21,2.72,2.72,0,0,0-.85.59A2.81,2.81,0,0,0,122,49a3,3,0,0,0-.22,1.17v9.28a1.23,1.23,0,0,1-.23.81.92.92,0,0,1-.74.28h-3.27a1.27,1.27,0,0,1-.84-.21,1.07,1.07,0,0,1-.23-.8V50.17a3.52,3.52,0,0,0-.18-1.13,2.75,2.75,0,0,0-.51-.91,2.35,2.35,0,0,0-.81-.61,2.52,2.52,0,0,0-1.07-.22,2.56,2.56,0,0,0-1,.21,2.85,2.85,0,0,0-.88.58,3.26,3.26,0,0,0-.65.9,3,3,0,0,0-.3,1.16v9.35A1.34,1.34,0,0,1,111,60a.77.77,0,0,1-.28.37,1.3,1.3,0,0,1-.35.16,1.49,1.49,0,0,1-.38,0h-3.2a1,1,0,0,1-1.15-1.09V43.61a1,1,0,0,1,.12-.49.89.89,0,0,1,.33-.35Z" transform="translate(-23.5 -20.59)" fill="#0b3444"/><path d="M135.94,42.72a.88.88,0,0,1,.38-.2,1.83,1.83,0,0,1,.38,0h2.14a1,1,0,0,1,.45.08.79.79,0,0,1,.29.23,1.49,1.49,0,0,1,.19.34c.05.13.1.27.15.42l.6,1.71.8-1a5.28,5.28,0,0,1,1-1,4.86,4.86,0,0,1,1.32-.72,5.41,5.41,0,0,1,1.87-.28A8.84,8.84,0,0,1,149,43a8.53,8.53,0,0,1,2.82,2,9.11,9.11,0,0,1,1.85,2.95,10.38,10.38,0,0,1,0,7.32,9.09,9.09,0,0,1-1.85,3,8.62,8.62,0,0,1-2.82,2,8.76,8.76,0,0,1-3.58.72,5.08,5.08,0,0,1-1.59-.22,4.65,4.65,0,0,1-1.18-.57,5.47,5.47,0,0,1-.91-.78l-.78-.85V65a1.07,1.07,0,0,1-.25.72,1,1,0,0,1-.79.3h-3.24a1.11,1.11,0,0,1-.37-.07,1.4,1.4,0,0,1-.37-.2,1.08,1.08,0,0,1-.28-.32.83.83,0,0,1-.11-.43V43.53a.92.92,0,0,1,.11-.47A1.64,1.64,0,0,1,135.94,42.72Zm13.23,8.84a5,5,0,0,0-.3-1.72,4.41,4.41,0,0,0-.84-1.42,4,4,0,0,0-1.29-1,3.84,3.84,0,0,0-1.66-.35,4.37,4.37,0,0,0-1.69.33,4.54,4.54,0,0,0-1.4.91,4.62,4.62,0,0,0-1,1.35,4.25,4.25,0,0,0-.42,1.66v.21a4.39,4.39,0,0,0,.35,1.76,4.45,4.45,0,0,0,1,1.42,4.6,4.6,0,0,0,1.43,1,4.35,4.35,0,0,0,1.74.35,3.84,3.84,0,0,0,1.66-.35,4,4,0,0,0,1.29-1,4.31,4.31,0,0,0,.84-1.42A5.11,5.11,0,0,0,149.18,51.56Z" transform="translate(-23.5 -20.59)" fill="#0b3444"/><path d="M156.92,38.28a1.27,1.27,0,0,1,.23-.76.9.9,0,0,1,.78-.31h3.47a.67.67,0,0,1,.3.08,1.05,1.05,0,0,1,.29.22,1.26,1.26,0,0,1,.23.34,1,1,0,0,1,.09.44V59.45a1,1,0,0,1-.3.81,1.13,1.13,0,0,1-.79.28h-3.29a1,1,0,0,1-.78-.28,1.26,1.26,0,0,1-.23-.81Z" transform="translate(-23.5 -20.59)" fill="#0b3444"/><path d="M180.5,58.39a9.44,9.44,0,0,1-2.8,1.79,8.55,8.55,0,0,1-3.3.64,9.63,9.63,0,0,1-6.7-2.67,9.42,9.42,0,0,1-2.07-3,8.91,8.91,0,0,1-.76-3.7A9.57,9.57,0,0,1,166,46.9,9.28,9.28,0,0,1,167.39,45a8.6,8.6,0,0,1,1.79-1.47,8.84,8.84,0,0,1,2.15-.95,8.67,8.67,0,0,1,2.45-.34,8.36,8.36,0,0,1,2.28.31,8.9,8.9,0,0,1,2.08.88,9,9,0,0,1,1.78,1.36,9.2,9.2,0,0,1,1.39,1.74,8.38,8.38,0,0,1,.9,2,7.68,7.68,0,0,1,.32,2.2q0,.74,0,1.2a1.36,1.36,0,0,1-.22.74,1.07,1.07,0,0,1-.66.38,6.45,6.45,0,0,1-1.35.11h-10.2a3.51,3.51,0,0,0,.57,1.52,3.6,3.6,0,0,0,1,1,4,4,0,0,0,1.2.52,5.07,5.07,0,0,0,1.2.16,5.41,5.41,0,0,0,1-.11,7.49,7.49,0,0,0,1-.28,5.89,5.89,0,0,0,.92-.41,3.07,3.07,0,0,0,.67-.49,2.94,2.94,0,0,1,.39-.28.69.69,0,0,1,.35-.09.67.67,0,0,1,.38.13,3,3,0,0,1,.43.37l1.5,1.7a1,1,0,0,1,.2.33,1.1,1.1,0,0,1,0,.3.79.79,0,0,1-.16.49A1.78,1.78,0,0,1,180.5,58.39Zm-6.81-11.8a2.71,2.71,0,0,0-1.07.22,4,4,0,0,0-1,.59,5.26,5.26,0,0,0-1.4,1.79h7.24a8.36,8.36,0,0,0-.64-1,4.37,4.37,0,0,0-.79-.82,3.44,3.44,0,0,0-1-.55A4.1,4.1,0,0,0,173.68,46.59Z" transform="translate(-23.5 -20.59)" fill="#0b3444"/><path d="M184.45,57a3.3,3.3,0,0,1-.1-.35.4.4,0,0,1,0-.23.42.42,0,0,1,.11-.16,1,1,0,0,1,.22-.14l1.35-.62a.5.5,0,0,1,.55,0,1.26,1.26,0,0,1,.31.43,2.52,2.52,0,0,0,.67,1,4.41,4.41,0,0,0,1,.69,5.16,5.16,0,0,0,1.09.4,4.1,4.1,0,0,0,.95.13A5.15,5.15,0,0,0,191.8,58a4.66,4.66,0,0,0,1.23-.48,3.12,3.12,0,0,0,1-.84,2,2,0,0,0,.39-1.23,1.94,1.94,0,0,0-.37-1.23,2.89,2.89,0,0,0-1-.77,6.11,6.11,0,0,0-1.32-.49l-1.45-.38a12.5,12.5,0,0,1-2.27-.83,7.1,7.1,0,0,1-1.7-1.13,4.44,4.44,0,0,1-1.07-1.47,4.54,4.54,0,0,1-.37-1.86,4.8,4.8,0,0,1,.44-2.07,4.68,4.68,0,0,1,1.23-1.6,5.68,5.68,0,0,1,1.88-1,7.6,7.6,0,0,1,2.43-.37,7.75,7.75,0,0,1,1.88.2,4.71,4.71,0,0,1,1.4.59,5.38,5.38,0,0,1,1.12,1q.51.57,1.06,1.32a1.15,1.15,0,0,1,.18.49q0,.21-.25.4l-1.1.84q-.33.18-.5.1a1.22,1.22,0,0,1-.37-.33l-.64-.74a3.93,3.93,0,0,0-.71-.63A3.4,3.4,0,0,0,192,45a3.91,3.91,0,0,0-1.2-.16,5.08,5.08,0,0,0-1.2.14,3.19,3.19,0,0,0-1,.45,2.39,2.39,0,0,0-.74.79,2.2,2.2,0,0,0-.28,1.13,1.42,1.42,0,0,0,.34.91,3.69,3.69,0,0,0,.86.76,6.22,6.22,0,0,0,1.15.58,9.74,9.74,0,0,0,1.2.38,14.33,14.33,0,0,1,2.46.79,7.72,7.72,0,0,1,1.91,1.15,4.8,4.8,0,0,1,1.23,1.55,4.45,4.45,0,0,1,.44,2,4.92,4.92,0,0,1-.49,2.22,4.85,4.85,0,0,1-1.36,1.67,6.28,6.28,0,0,1-2.08,1.06,8.93,8.93,0,0,1-2.62.37,7.85,7.85,0,0,1-1.83-.23,7,7,0,0,1-1.78-.69,6.46,6.46,0,0,1-1.52-1.18A4.75,4.75,0,0,1,184.45,57Z" transform="translate(-23.5 -20.59)" fill="#0b3444"/><path d="M203,44.36a6.57,6.57,0,0,1,.85-.89,4.61,4.61,0,0,1,1-.66,5.32,5.32,0,0,1,1.27-.41,8.44,8.44,0,0,1,1.64-.14,6.81,6.81,0,0,1,5.15,2.25A7.44,7.44,0,0,1,214.34,47a8.62,8.62,0,0,1,.52,3v9.62a1,1,0,0,1-.25.72.87.87,0,0,1-.63.24h-1q-.52,0-.67-.21a1.28,1.28,0,0,1-.15-.71V50a5.55,5.55,0,0,0-.29-1.74,5.15,5.15,0,0,0-.86-1.61,4.48,4.48,0,0,0-1.43-1.18,4.17,4.17,0,0,0-2-.45,4.86,4.86,0,0,0-1.63.29,4.6,4.6,0,0,0-1.48.86,4.36,4.36,0,0,0-1.07,1.4,4.28,4.28,0,0,0-.41,1.91V59.92a.55.55,0,0,1-.62.62h-1.46q-.67,0-.67-.62V37.82a.59.59,0,0,1,.18-.45.63.63,0,0,1,.44-.17h1.47a.63.63,0,0,1,.47.18.61.61,0,0,1,.18.44Z" transform="translate(-23.5 -20.59)" fill="#0b3444"/><path d="M217.77,51.57a8.86,8.86,0,0,1,.74-3.61,9.7,9.7,0,0,1,2-3,9.48,9.48,0,0,1,3-2,8.87,8.87,0,0,1,3.59-.74,9,9,0,0,1,2.45.33,9.16,9.16,0,0,1,2.22.95A9.62,9.62,0,0,1,233.62,45a9.52,9.52,0,0,1,1.47,1.89,9.29,9.29,0,0,1,1,2.22A9.24,9.24,0,0,1,236,54a9.16,9.16,0,0,1-1,2.22,9.61,9.61,0,0,1-1.47,1.88,9.35,9.35,0,0,1-4.1,2.4,9.15,9.15,0,0,1-4.89,0,9.42,9.42,0,0,1-5.57-4.29,9.52,9.52,0,0,1-.95-2.22A8.84,8.84,0,0,1,217.77,51.57Zm2.82,0a6.47,6.47,0,0,0,.51,2.55,6.82,6.82,0,0,0,1.39,2.11,6.72,6.72,0,0,0,2.05,1.45,6,6,0,0,0,2.52.54,5.9,5.9,0,0,0,2.5-.54,6.66,6.66,0,0,0,2-1.45A6.79,6.79,0,0,0,233,54.12,6.68,6.68,0,0,0,233,49a7,7,0,0,0-1.37-2.15,6.7,6.7,0,0,0-2-1.48,5.78,5.78,0,0,0-2.5-.55,5.86,5.86,0,0,0-2.52.55,6.75,6.75,0,0,0-2.05,1.48A7,7,0,0,0,221.1,49,6.51,6.51,0,0,0,220.59,51.57Z" transform="translate(-23.5 -20.59)" fill="#0b3444"/><path d="M240.87,43.07l.69,1.8.92,2.36,1,2.61,1,2.56.89,2.22.64,1.58q.48-1.2,1.76-4.48t3.34-8.67a.9.9,0,0,1,.28-.38.74.74,0,0,1,.47-.14h1.57q.62,0,.62.5a.41.41,0,0,1,0,.1l0,.13a.77.77,0,0,0,0,.16l-1.37,3.37,3.74,9.42.62-1.58.87-2.22,1-2.57,1-2.61.91-2.36.69-1.8a.9.9,0,0,1,.28-.38.74.74,0,0,1,.47-.14h1.57q.62,0,.62.5a.43.43,0,0,1,0,.1l0,.13a.73.73,0,0,0,0,.16L257.6,60a1,1,0,0,0-.08.16.49.49,0,0,1-.11.17.68.68,0,0,1-.21.13.89.89,0,0,1-.35.06h-.94a.89.89,0,0,1-.35-.06.67.67,0,0,1-.21-.13.48.48,0,0,1-.11-.17,1.07,1.07,0,0,0-.08-.16l-4-9.65L247.28,60a1,1,0,0,0-.08.16.49.49,0,0,1-.11.17.68.68,0,0,1-.21.13.89.89,0,0,1-.35.06h-.93a.89.89,0,0,1-.35-.06.67.67,0,0,1-.21-.13.48.48,0,0,1-.11-.17,1.07,1.07,0,0,0-.08-.16L238,43.43l0-.1a1.18,1.18,0,0,1,0-.28q0-.5.65-.5h1.49a.74.74,0,0,1,.47.14A.91.91,0,0,1,240.87,43.07Z" transform="translate(-23.5 -20.59)" fill="#0b3444"/><path d="M269.58,39.28a.55.55,0,0,1-.62.62H267.5q-.67,0-.67-.62V37.82a.59.59,0,0,1,.18-.45.63.63,0,0,1,.44-.17h1.47a.64.64,0,0,1,.47.18.61.61,0,0,1,.18.45Zm0,20.64a.55.55,0,0,1-.62.62H267.5q-.67,0-.67-.62V43.17a.59.59,0,0,1,.18-.45.63.63,0,0,1,.44-.17h1.47a.63.63,0,0,1,.47.18.61.61,0,0,1,.18.44Z" transform="translate(-23.5 -20.59)" fill="#0b3444"/><path d="M276.63,44.93a9.94,9.94,0,0,1,.89-1,6.49,6.49,0,0,1,1.11-.85A6.12,6.12,0,0,1,280,42.5a5.66,5.66,0,0,1,1.69-.23,7.4,7.4,0,0,1,3.07.6A6.38,6.38,0,0,1,287,44.51,7.06,7.06,0,0,1,288.35,47a9.58,9.58,0,0,1,.46,3v9.62a1,1,0,0,1-.25.72.87.87,0,0,1-.63.24h-1q-.52,0-.67-.21a1.28,1.28,0,0,1-.15-.71V50a6.79,6.79,0,0,0-.23-1.74,4.73,4.73,0,0,0-.77-1.61,4,4,0,0,0-1.41-1.18A4.66,4.66,0,0,0,281.5,45a5.23,5.23,0,0,0-1.67.29,5.09,5.09,0,0,0-1.57.86,4.63,4.63,0,0,0-1.17,1.4,3.9,3.9,0,0,0-.46,1.91V59.92a.55.55,0,0,1-.62.62h-1.46q-.67,0-.67-.62V43.17a.59.59,0,0,1,.18-.45.63.63,0,0,1,.44-.17H276a.63.63,0,0,1,.47.18.61.61,0,0,1,.18.44Z" transform="translate(-23.5 -20.59)" fill="#0b3444"/><path d="M308,58a9,9,0,0,1-2.86,2,8.56,8.56,0,0,1-3.57.74,9,9,0,0,1-2.44-.33,9.14,9.14,0,0,1-2.22-.95,9.59,9.59,0,0,1-3.35-3.36,9.27,9.27,0,0,1-.95-2.22,9.24,9.24,0,0,1,0-4.92,9.14,9.14,0,0,1,.95-2.22A9.61,9.61,0,0,1,295,44.94a9.37,9.37,0,0,1,4.09-2.4,9,9,0,0,1,2.45-.33,8.55,8.55,0,0,1,3.5.72,9.05,9.05,0,0,1,2.83,2V43.16a.55.55,0,0,1,.62-.62h1.6a.55.55,0,0,1,.52.61V57.62a10.85,10.85,0,0,1-.36,2.91,8.35,8.35,0,0,1-1,2.29,7,7,0,0,1-1.52,1.7,8.28,8.28,0,0,1-1.93,1.15,10.35,10.35,0,0,1-2.23.66,13.64,13.64,0,0,1-2.42.21,9.1,9.1,0,0,1-3-.48,10.52,10.52,0,0,1-2.43-1.2.75.75,0,0,1-.23-.18.43.43,0,0,1-.09-.29.87.87,0,0,1,0-.11.35.35,0,0,1,.06-.14l.77-1.23a1.34,1.34,0,0,1,.21-.23.31.31,0,0,1,.21-.08.57.57,0,0,1,.34.11,3.33,3.33,0,0,0,.86.46,8.76,8.76,0,0,0,1.15.35q.62.14,1.23.22a8.64,8.64,0,0,0,1.08.08,9.07,9.07,0,0,0,2.68-.38,6.54,6.54,0,0,0,2.1-1.06,4.91,4.91,0,0,0,1.37-1.64,4.56,4.56,0,0,0,.5-2.13Zm0-6.55A6.49,6.49,0,0,0,307.5,49a6.81,6.81,0,0,0-1.39-2.12,6.7,6.7,0,0,0-2.06-1.45,6,6,0,0,0-2.51-.54,5.9,5.9,0,0,0-2.5.54,6.67,6.67,0,0,0-2,1.45A6.76,6.76,0,0,0,295.63,49a6.67,6.67,0,0,0,0,5.08A7,7,0,0,0,297,56.19a6.69,6.69,0,0,0,2,1.48,5.77,5.77,0,0,0,2.5.55,5.86,5.86,0,0,0,2.51-.55,6.72,6.72,0,0,0,2.06-1.48A7.05,7.05,0,0,0,307.5,54,6.51,6.51,0,0,0,308,51.5Z" transform="translate(-23.5 -20.59)" fill="#0b3444"/><path d="M46.19,54.37l.05,0H29.81V42.7L46.44,28.19,63.07,42.7,41.65,24,24.29,39.15a2.32,2.32,0,0,0-.8,1.75v17.5a2.33,2.33,0,0,0,2.33,2.32H46.24" transform="translate(-23.5 -20.59)" fill="#07b39b"/><path d="M44.91,21.17,41.65,24,63.07,42.7v18.1h4a2.33,2.33,0,0,0,2.33-2.32V40.89a2.32,2.32,0,0,0-.8-1.75L48,21.17A2.34,2.34,0,0,0,44.91,21.17Z" transform="translate(-23.5 -20.59)" fill="#62c3ad"/><path d="M44.87,65.22l7.78-6.78a1.16,1.16,0,0,0,0-1.75l-7.78-6.78a1.17,1.17,0,0,0-1.93.87V64.35A1.17,1.17,0,0,0,44.87,65.22Z" transform="translate(-23.5 -20.59)" fill="#07b39b"/></svg>